PathFileType	4	(X/Y/Z)	/Users/itak/Documents/Research/Walk-IL/dataset/trc/00166_00008.trc
DataRate	CameraRate	NumFrames	NumMarkers	Units	OrigDataRate	OrigDataStartFrame	OrigNumFrames
100.000000	100.000000	4	53	mm	100.000000	399	639
Frame#	Time	RPSI			LPSI			L3			STRN			T10			C7			CLAV			RBAK			LBAK			LSHO			LUPA			LAEL			LAOL			LWTS			LWPS			LFRA			LIFD			LHPS			LHTS			RSHO			RUPA			RAEL			RAOL			RWTS			RWPS			RFRA			RIFD			RHTS			RHPS			RBHD			LFHD			RFHD			LBHD			LHIP			RHIP			RASI			LASI			LKNE			LTHI			LANK			LTIP			LTOE			LMT1			LMT5			LHEE			RKNE			RTHI			RANK			RTIP			RTOE			RMT1			RMT5			RHEE			
		X1	Y1	Z1	X2	Y2	Z2	X3	Y3	Z3	X4	Y4	Z4	X5	Y5	Z5	X6	Y6	Z6	X7	Y7	Z7	X8	Y8	Z8	X9	Y9	Z9	X10	Y10	Z10	X11	Y11	Z11	X12	Y12	Z12	X13	Y13	Z13	X14	Y14	Z14	X15	Y15	Z15	X16	Y16	Z16	X17	Y17	Z17	X18	Y18	Z18	X19	Y19	Z19	X20	Y20	Z20	X21	Y21	Z21	X22	Y22	Z22	X23	Y23	Z23	X24	Y24	Z24	X25	Y25	Z25	X26	Y26	Z26	X27	Y27	Z27	X28	Y28	Z28	X29	Y29	Z29	X30	Y30	Z30	X31	Y31	Z31	X32	Y32	Z32	X33	Y33	Z33	X34	Y34	Z34	X35	Y35	Z35	X36	Y36	Z36	X37	Y37	Z37	X38	Y38	Z38	X39	Y39	Z39	X40	Y40	Z40	X41	Y41	Z41	X42	Y42	Z42	X43	Y43	Z43	X44	Y44	Z44	X45	Y45	Z45	X46	Y46	Z46	X47	Y47	Z47	X48	Y48	Z48	X49	Y49	Z49	X50	Y50	Z50	X51	Y51	Z51	X52	Y52	Z52	X53	Y53	Z53	

400	3.99	-337.2710876464844	1030.741088867188	14.80485439300537	-331.0296020507812	1031.561157226562	-107.0494155883789	-334.5286865234375	1065.203125	-39.55389785766602	-77.06171417236328	1280.595092773438	-43.90521621704102	-369.9805603027344	1219.66845703125	-40.22109603881836	-314.0387573242188	1491.037475585938	-60.61790084838867	-109.7475128173828	1392.393188476562	-59.3690299987793	-371.5628967285156	1317.353515625	55.05361938476562	-323.8732299804688	1460.171142578125	-159.9502105712891	-250.3740844726562	1445.0087890625	-241.2591857910156	-284.9167785644531	1306.818359375	-303.3470153808594	-268.1219482421875	1090.945556640625	-310.2219543457031	-294.9273071289062	1075.53857421875	-226.8859252929688	-137.5224151611328	868.3734130859375	-300.845703125	-225.0044555664062	839.9989624023438	-318.2926025390625	-251.5785827636719	980.3948364257812	-322.3604736328125	-101.5517807006836	688.1605224609375	-277.6188049316406	-197.3182067871094	772.171142578125	-318.1935729980469	-125.8442687988281	790.48681640625	-321.3466491699219	-245.2668304443359	1477.752319335938	119.3832015991211	-260.1965026855469	1410.682006835938	190.8194122314453	-254.4021148681641	1121.461059570312	247.9743499755859	-258.9275207519531	1111.653564453125	150.8202514648438	-97.53504943847656	907.8656616210938	230.6807250976562	-167.6998443603516	885.6546630859375	279.8805236816406	-223.4830017089844	1052.186401367188	266.9874267578125	-64.42971801757812	721.8280639648438	212.0528869628906	-62.44722747802734	817.2383422851562	240.0277252197266	-132.7071075439453	805.3406372070312	277.7650146484375	-275.482177734375	1657.492797851562	2.036638736724854	-138.7707672119141	1708.43408203125	-160.3019714355469	-119.8869552612305	1727.90478515625	-33.37418746948242	-303.9453125	1644.1181640625	-133.8896331787109	-214.1963348388672	978.1304321289062	-223.2458953857422	-197.3935699462891	981.1284790039062	150.539306640625	-111.6018371582031	1013.072326660156	104.6043243408203	-98.8699951171875	1015.769104003906	-151.2751312255859	-18.55051612854004	504.2889709472656	-163.3295288085938	-70.07675933837891	636.0624389648438	-202.6068878173828	10.36014556884766	34.27518844604492	-147.8493957519531	4.164093017578125	273.2324829101562	-166.9077758789062	223.6544952392578	74.43187713623047	-126.570556640625	177.7438354492188	66.77548980712891	-78.29977416992188	117.5167922973633	39.75834655761719	-184.0256958007812	-37.96843338012695	32.37779235839844	-77.00223541259766	-289.7283020019531	490.8757019042969	113.2051773071289	-184.02197265625	745.9668579101562	148.3789825439453	-627.9271850585938	108.8825149536133	73.63038635253906	-341.335693359375	373.5499267578125	92.20276641845703	-436.0034484863281	40.69504165649414	33.6467399597168	-482.4776916503906	47.66706085205078	-9.071160316467285	-538.3512573242188	40.88491439819336	105.8222732543945	-664.8417358398438	151.2857513427734	6.88693380355835	
401	4	-325.171142578125	1032.042114257812	13.3104829788208	-319.0851135253906	1033.657470703125	-108.633056640625	-322.4589538574219	1066.873657226562	-41.18146896362305	-65.84679412841797	1282.685546875	-45.15700531005859	-358.5445861816406	1220.81982421875	-42.42185592651367	-303.4342041015625	1492.27294921875	-62.88624572753906	-98.85021209716797	1394.377807617188	-60.76454544067383	-360.7805786132812	1318.575073242188	52.70427322387695	-312.8050231933594	1461.367797851562	-162.2064361572266	-238.9402008056641	1446.494018554688	-243.2188568115234	-272.7701110839844	1308.222290039062	-305.570068359375	-255.9767913818359	1092.529174804688	-311.9469909667969	-282.9010620117188	1077.307739257812	-228.5606689453125	-128.6703033447266	868.0401000976562	-302.4483642578125	-216.56103515625	841.16796875	-319.8276062011719	-240.8036804199219	981.9490356445312	-323.9830627441406	-96.03968811035156	687.1286010742188	-278.6803894042969	-190.1293029785156	772.85107421875	-319.5885009765625	-118.325439453125	789.8113403320312	-322.712158203125	-235.2449035644531	1479.442626953125	117.4271621704102	-250.6024627685547	1412.456665039062	188.7640991210938	-246.6426239013672	1123.095703125	244.6848754882812	-249.8604431152344	1113.682739257812	147.41259765625	-91.69923400878906	907.9462280273438	228.9776763916016	-162.6268005371094	886.5234375	277.3870849609375	-216.5284881591797	1053.625854492188	263.9508972167969	-60.72172927856445	721.4232177734375	210.3879241943359	-57.81841659545898	816.8366088867188	238.5204620361328	-128.5467681884766	805.7745971679688	275.511474609375	-265.4318237304688	1658.877807617188	-0.08575676381587982	-128.3592224121094	1710.224731445312	-162.0342864990234	-109.9633865356445	1729.68359375	-35.00537490844727	-293.4307861328125	1645.301391601562	-136.0988922119141	-202.0774383544922	980.44189453125	-224.7976989746094	-185.53173828125	982.007080078125	148.9868621826172	-99.97365570068359	1014.671752929688	103.0224761962891	-86.62677001953125	1017.993347167969	-152.6699371337891	-8.799482345581055	505.0855407714844	-163.8309173583984	-58.95082473754883	637.762939453125	-203.133544921875	11.91053581237793	34.24645233154297	-148.3775177001953	10.79003143310547	273.4774475097656	-167.5186462402344	225.9429626464844	69.71537780761719	-124.152961730957	179.2368011474609	63.23089599609375	-76.55075836181641	119.8041839599609	37.57497406005859	-183.2604827880859	-37.22955703735352	33.64424896240234	-78.08350372314453	-273.7638549804688	490.3258972167969	114.3051910400391	-170.6846008300781	746.8690185546875	147.0972747802734	-621.7185668945312	116.4289627075195	73.70195770263672	-327.7658996582031	373.5575866699219	93.99093627929688	-435.6648559570312	40.38333511352539	33.72518539428711	-480.0669555664062	48.2887077331543	-9.298125267028809	-536.4481811523438	42.91392135620117	105.5045166015625	-655.5341796875	160.9196319580078	6.94994068145752	
402	4.01	-313.3290710449219	1033.355590820312	11.76245594024658	-307.3171081542969	1035.693115234375	-110.2601547241211	-310.627685546875	1068.520874023438	-42.84604644775391	-54.70763397216797	1284.817260742188	-46.37454986572266	-347.1745300292969	1222.060180664062	-44.5935173034668	-292.8572387695312	1493.57763671875	-65.11007690429688	-87.99710083007812	1396.421264648438	-62.12412643432617	-350.0304565429688	1319.93359375	50.39541625976562	-301.730224609375	1462.680541992188	-164.4041595458984	-227.5219268798828	1448.15771484375	-245.1185760498047	-260.5924682617188	1309.863891601562	-307.8428344726562	-243.7743377685547	1094.364135742188	-313.6879577636719	-270.8525695800781	1079.311157226562	-230.2790222167969	-119.8040008544922	867.9699096679688	-304.0823974609375	-208.0602111816406	842.659912109375	-321.5391235351562	-229.9422760009766	983.8035888671875	-325.6914978027344	-90.72267913818359	686.352294921875	-279.7394714355469	-182.9206695556641	773.8583374023438	-321.1445922851562	-110.8095932006836	789.3916625976562	-324.0963134765625	-225.2577667236328	1481.24169921875	115.4656600952148	-241.0167846679688	1414.403198242188	186.7440185546875	-238.8668823242188	1124.923583984375	241.4661865234375	-240.7923126220703	1115.892578125	144.0819244384766	-85.84877777099609	908.23583984375	227.3831481933594	-157.5211181640625	887.6138305664062	275.0045776367188	-209.5595855712891	1055.271728515625	260.9949645996094	-57.11911773681641	721.1818237304688	208.7629852294922	-53.21651840209961	816.6151123046875	237.0789947509766	-124.4116439819336	806.4166259765625	273.3444213867188	-255.3492126464844	1660.27587890625	-2.165750980377197	-117.9080276489258	1712.093994140625	-163.7451934814453	-100.0437088012695	1731.51123046875	-36.5869255065918	-282.9083557128906	1646.5	-138.24560546875	-190.1369018554688	982.6682739257812	-226.3550872802734	-174.0067901611328	982.9268188476562	147.3699951171875	-88.64269256591797	1016.359130859375	101.3913726806641	-74.61316680908203	1020.191955566406	-154.1411285400391	0.3029300570487976	505.7319946289062	-164.5469818115234	-48.35606384277344	639.353515625	-203.8109588623047	13.17127895355225	34.15951919555664	-148.8788757324219	16.73308563232422	273.6249084472656	-168.2288513183594	227.7315979003906	65.43421936035156	-122.2037506103516	180.3760375976562	60.09379196166992	-75.17617034912109	121.6040267944336	35.72090148925781	-182.7998504638672	-36.60372543334961	34.7297248840332	-79.07396697998047	-257.0708312988281	489.6214599609375	115.4914703369141	-157.2438507080078	747.818359375	145.8724060058594	-614.6826171875	124.5541000366211	73.58699035644531	-313.3092651367188	373.4674377441406	95.86923980712891	-434.9895629882812	39.86064910888672	33.96180725097656	-477.1075134277344	49.26472854614258	-9.382950782775879	-534.1714477539062	45.63934707641602	105.1020278930664	-645.1543579101562	170.96826171875	6.803163528442383	
403	4.02	-301.7767639160156	1034.61328125	10.12795162200928	-295.7146911621094	1037.59521484375	-111.951530456543	-299.070556640625	1070.109741210938	-44.57340240478516	-43.65957641601562	1286.92138671875	-47.53972625732422	-335.8992919921875	1223.348266601562	-46.75875473022461	-282.3086242675781	1494.917724609375	-67.28482055664062	-77.19495391845703	1398.45361328125	-63.43152236938477	-339.3433837890625	1321.370971679688	48.10929489135742	-290.6470336914062	1464.070678710938	-166.5469665527344	-216.105712890625	1449.940185546875	-246.9564361572266	-248.3976287841797	1311.680297851562	-310.146728515625	-231.5512542724609	1096.374145507812	-315.4539489746094	-258.8268127441406	1081.46875	-232.0556640625	-110.8708190917969	868.1355590820312	-305.7438354492188	-199.4508056640625	844.4086303710938	-323.4297180175781	-218.9976348876953	985.8798217773438	-327.4925537109375	-85.4918212890625	685.8250732421875	-280.8102416992188	-175.6149444580078	775.141357421875	-322.8683166503906	-103.2275390625	789.2066650390625	-325.5065307617188	-215.3301239013672	1483.0849609375	113.5121383666992	-231.4644165039062	1416.435424804688	184.7619781494141	-231.0688781738281	1126.863647460938	238.3664703369141	-231.7420959472656	1118.189697265625	140.8844146728516	-79.94798278808594	908.6829833984375	225.904296875	-152.3219451904297	888.8605346679688	272.7589416503906	-202.5553283691406	1057.043090820312	258.1599426269531	-53.54035568237305	721.0698852539062	207.1746063232422	-48.57188034057617	816.5311889648438	235.6986999511719	-120.2295074462891	807.2092895507812	271.27880859375	-245.2424926757812	1661.642333984375	-4.197788715362549	-107.4223403930664	1713.999389648438	-165.4210510253906	-90.13348388671875	1733.337768554688	-38.1046142578125	-272.398681640625	1647.696411132812	-140.3219757080078	-178.3624114990234	984.7595825195312	-227.9328460693359	-162.8861846923828	983.8267822265625	145.7036895751953	-77.64900207519531	1018.056884765625	99.74433135986328	-62.8182258605957	1022.291137695312	-155.6651458740234	8.6907958984375	506.1910400390625	-165.4041137695312	-38.44065856933594	640.7168579101562	-204.6485137939453	14.16484069824219	34.06314468383789	-149.3018798828125	22.02591323852539	273.6605224609375	-168.9569549560547	229.0996856689453	61.59064102172852	-120.6716156005859	181.2403106689453	57.33573913574219	-74.10688018798828	122.9616470336914	34.25249481201172	-182.5850677490234	-36.08628082275391	35.62252426147461	-79.92236328125	-239.7412261962891	488.7806091308594	116.7185897827148	-143.78564453125	748.7813110351562	144.7341461181641	-606.794189453125	133.2719421386719	73.27204132080078	-298.0142517089844	373.302001953125	97.76091003417969	-433.7833251953125	39.09011840820312	34.47309494018555	-473.4457397460938	50.74296951293945	-9.233274459838867	-531.43212890625	49.22729110717773	104.6087188720703	-633.7500610351562	181.3870849609375	6.435505390167236	
